<svg xmlns="http://www.w3.org/2000/svg" viewBox="0 0 555.61 317.72"><defs><style>.cls-1{fill:#231f20;}.cls-2,.cls-3,.cls-4{fill:none;stroke-miterlimit:10;}.cls-2{stroke:#231f20;}.cls-3,.cls-4{stroke:#787878;}.cls-4{stroke-dasharray:3.97 3.97;}.cls-5{fill:#f47959;opacity:0.6;}</style></defs><g id="Layer_2" data-name="Layer 2"><g id="Layer_1-2" data-name="Layer 1"><path class="cls-1" d="M29.88,25.87H39.8V40H29.88Zm1.29,13h7.35V27H31.17Zm18.45-5H45.75v11.9H44.42V23.57h1.33v9.14h3.87Z"/><path class="cls-1" d="M72,36v1.12H51.85V36ZM68,25.52H54.45v-1.1H69.32v5.09H55.8v3h14v1.1H54.5V28.49H68ZM55.9,44.09H69.8v1.12H54.57v-6H55.9Z"/><path class="cls-1" d="M88.1,27.39H75v-1.1h5.92V23.34H82.2v2.95h5.9Zm-6.58,9.12c-3.17,0-5.25-1.47-5.25-3.87s2.08-3.87,5.25-3.87,5.23,1.47,5.23,3.87S84.67,36.51,81.52,36.51Zm0-1c2.38,0,4-1.15,4-2.82s-1.6-2.83-4-2.83-4,1.15-4,2.83S79.15,35.46,81.52,35.46ZM92.2,41.91c0,2.4-2.68,3.78-7.08,3.78S78,44.31,78,41.91s2.68-3.75,7.1-3.75S92.2,39.54,92.2,41.91Zm-1.3,0c0-1.67-2.25-2.67-5.78-2.67s-5.8,1-5.8,2.67,2.28,2.7,5.8,2.7S90.9,43.61,90.9,41.91Zm1.07-13v3.54h3.45v1.15H92V38H90.65V23.57H92v4.22h3.45v1.13Z"/><text/><path class="cls-1" d="M55.55,95.9v2.6h6.72V103H48.72v2.6H63v1.08H47.42V101.9H61V99.55H47.37v-1h6.85V95.9H44.85V94.8H64.92v1.1Zm-5.08-9.44H46.8V85.38H63v1.08H59.27v5H62.9v1.1H46.82v-1.1h3.65Zm7.48,0H51.77v5H58Z"/><path class="cls-1" d="M88.1,88.58H75v-1.1h5.92v-3H82.2v3h5.9ZM81.52,97.7c-3.17,0-5.25-1.47-5.25-3.87S78.35,90,81.52,90s5.23,1.48,5.23,3.88S84.67,97.7,81.52,97.7Zm0-1c2.38,0,4-1.15,4-2.82S83.9,91,81.52,91s-4,1.15-4,2.83S79.15,96.65,81.52,96.65ZM92.2,103.1c0,2.4-2.68,3.78-7.08,3.78S78,105.5,78,103.1s2.68-3.75,7.1-3.75S92.2,100.73,92.2,103.1Zm-1.3,0c0-1.67-2.25-2.67-5.78-2.67s-5.8,1-5.8,2.67,2.28,2.7,5.8,2.7S90.9,104.8,90.9,103.1ZM92,90.1v3.55h3.45V94.8H92v4.38H90.65V84.76H92V89h3.45V90.1Z"/><path class="cls-1" d="M71.92,157.08v1.1h-20v-1.1h9.77v-4.2H63v4.2Zm-9.4,5.67c.1,2.8,4.33,5,7.58,5.53l-.53,1.05c-3-.55-6.47-2.23-7.72-4.73-1.23,2.48-4.65,4.18-7.65,4.73l-.55-1.05c3.25-.53,7.45-2.73,7.55-5.53H54.55v-1.1H61.2V159.1h1.32v2.55H69.2v1.1Zm-4.45-7.52a21,21,0,0,0,1-5.95H53.7v-1.12h6.62v.67a21.58,21.58,0,0,1-1,6.62Zm9.53.07a32.45,32.45,0,0,0,.6-6h-6v-1.12h7.22v.7a33.15,33.15,0,0,1-.6,6.62Z"/><path class="cls-1" d="M88.1,151.08H75V150h5.92V147H82.2V150h5.9Zm-6.58,9.12c-3.17,0-5.25-1.47-5.25-3.87s2.08-3.88,5.25-3.88,5.23,1.48,5.23,3.88S84.67,160.2,81.52,160.2Zm0-1c2.38,0,4-1.15,4-2.82s-1.6-2.83-4-2.83-4,1.15-4,2.83S79.15,159.15,81.52,159.15ZM92.2,165.6c0,2.4-2.68,3.78-7.08,3.78S78,168,78,165.6s2.68-3.75,7.1-3.75S92.2,163.23,92.2,165.6Zm-1.3,0c0-1.67-2.25-2.67-5.78-2.67s-5.8,1-5.8,2.67,2.28,2.7,5.8,2.7S90.9,167.3,90.9,165.6Zm1.07-13v3.55h3.45v1.15H92v4.38H90.65V147.26H92v4.22h3.45v1.12Z"/><path class="cls-1" d="M35.05,225.58c2.6-.08,5.27-.25,7.7-.55l.1,1a103.37,103.37,0,0,1-14,.82l-.23-1.17c1.57,0,3.32,0,5.15-.05v-7h1.3ZM39,222a52.51,52.51,0,0,0,.7-8.59H29.88v-1.1H41v.82a56,56,0,0,1-.67,9Zm10.53-1.57H45.62V232H44.3V209.73h1.32v9.5H49.5Z"/><path class="cls-1" d="M58.1,220.3c-3.28,0-5.6-2-5.6-4.82s2.32-4.85,5.6-4.85,5.6,2,5.6,4.85S61.37,220.3,58.1,220.3Zm0-1.1c2.47,0,4.3-1.57,4.3-3.72s-1.83-3.72-4.3-3.72-4.3,1.6-4.3,3.72S55.62,219.2,58.1,219.2Zm12.69,11.3v1.1H55.9v-5.22H68.62V223.6H55.82v-1.1h14.1v4.93H57.2v3.07Zm-.87-9.2H68.6V209.73h1.32Z"/><path class="cls-1" d="M88.1,213.58H75v-1.1h5.92v-2.95H82.2v2.95h5.9Zm-6.58,9.12c-3.17,0-5.25-1.47-5.25-3.87S78.35,215,81.52,215s5.23,1.48,5.23,3.88S84.67,222.7,81.52,222.7Zm0-1c2.38,0,4-1.15,4-2.82s-1.6-2.83-4-2.83-4,1.15-4,2.83S79.15,221.65,81.52,221.65ZM92.2,228.1c0,2.4-2.68,3.78-7.08,3.78S78,230.5,78,228.1s2.68-3.75,7.1-3.75S92.2,225.73,92.2,228.1Zm-1.3,0c0-1.67-2.25-2.67-5.78-2.67s-5.8,1-5.8,2.67,2.28,2.7,5.8,2.7S90.9,229.8,90.9,228.1Zm1.07-13v3.54h3.45v1.15H92v4.38H90.65V209.76H92V214h3.45v1.13Z"/><path class="cls-1" d="M12.1,281.68a49.89,49.89,0,0,1-10.48.8H0v-8.9H9.72v1.13H1.32v6.64h.3a47.63,47.63,0,0,0,10.28-.8ZM3.55,293H16.87v1.12H2.25v-5.35H14.67v-2.87H2.2v-1.13H16v5.08H3.55Zm15.9-15.78v1.13H16v5.17H14.65V272.23H16v5Z"/><path class="cls-1" d="M41.92,283.23v1.12h-20v-1.12h8.57v-3.38h1.32v3.38ZM38,276.88c0-.8,0-1.5,0-2.15v-.47H24.3v-1.13H39.35v1.6a31.57,31.57,0,0,1-.6,6.9l-1.33-.1a26.32,26.32,0,0,0,.5-3.6l-13.87.65-.25-1.15ZM24.45,287H39.32v7.07H24.45Zm1.27,6H38V288.1H25.72Z"/><path class="cls-1" d="M58.1,276.31H45v-1.1h5.92v-2.93H52.2v2.93h5.9Zm-6.58,9.59c-3.15,0-5.25-1.6-5.25-4s2.1-4.07,5.25-4.07,5.23,1.6,5.23,4.07S54.67,285.9,51.52,285.9Zm0-1.07c2.38,0,4-1.25,4-3s-1.6-3-4-3-4,1.23-4,3S49.15,284.83,51.52,284.83Zm-1.77,7.95H63.07v1.12H48.42v-6.32h1.33Zm15.7-12.9V281H62V289H60.65V272.28H62v7.6Z"/><path class="cls-1" d="M88.1,276.08H75V275h5.92v-3H82.2v3h5.9Zm-6.58,9.12c-3.17,0-5.25-1.47-5.25-3.87s2.08-3.88,5.25-3.88,5.23,1.48,5.23,3.88S84.67,285.2,81.52,285.2Zm0-1.05c2.38,0,4-1.15,4-2.82s-1.6-2.83-4-2.83-4,1.15-4,2.83S79.15,284.15,81.52,284.15ZM92.2,290.6c0,2.4-2.68,3.78-7.08,3.78S78,293,78,290.6s2.68-3.75,7.1-3.75S92.2,288.23,92.2,290.6Zm-1.3,0c0-1.67-2.25-2.67-5.78-2.67s-5.8,1-5.8,2.67,2.28,2.7,5.8,2.7S90.9,292.3,90.9,290.6Zm1.07-13v3.54h3.45v1.15H92v4.38H90.65V272.26H92v4.22h3.45v1.13Z"/><line class="cls-2" x1="114" x2="114" y2="317.72"/><line class="cls-3" x1="157.11" x2="157.11" y2="2"/><line class="cls-4" x1="157.11" y1="5.97" x2="157.11" y2="313.73"/><line class="cls-3" x1="157.11" y1="315.72" x2="157.11" y2="317.72"/><line class="cls-3" x1="201.34" x2="201.34" y2="2"/><line class="cls-4" x1="201.34" y1="5.97" x2="201.34" y2="313.73"/><line class="cls-3" x1="201.34" y1="315.72" x2="201.34" y2="317.72"/><line class="cls-3" x1="245.56" x2="245.56" y2="2"/><line class="cls-4" x1="245.56" y1="5.97" x2="245.56" y2="313.73"/><line class="cls-3" x1="245.56" y1="315.72" x2="245.56" y2="317.72"/><line class="cls-3" x1="289.78" x2="289.78" y2="2"/><line class="cls-4" x1="289.78" y1="5.97" x2="289.78" y2="313.73"/><line class="cls-3" x1="289.78" y1="315.72" x2="289.78" y2="317.72"/><line class="cls-3" x1="334" x2="334" y2="2"/><line class="cls-4" x1="334" y1="5.97" x2="334" y2="313.73"/><line class="cls-3" x1="334" y1="315.72" x2="334" y2="317.72"/><line class="cls-3" x1="378.23" x2="378.23" y2="2"/><line class="cls-4" x1="378.23" y1="5.97" x2="378.23" y2="313.73"/><line class="cls-3" x1="378.23" y1="315.72" x2="378.23" y2="317.72"/><line class="cls-3" x1="422.45" x2="422.45" y2="2"/><line class="cls-4" x1="422.45" y1="5.97" x2="422.45" y2="313.73"/><line class="cls-3" x1="422.45" y1="315.72" x2="422.45" y2="317.72"/><line class="cls-3" x1="466.67" x2="466.67" y2="2"/><line class="cls-4" x1="466.67" y1="5.97" x2="466.67" y2="313.73"/><line class="cls-3" x1="466.67" y1="315.72" x2="466.67" y2="317.72"/><line class="cls-3" x1="510.89" x2="510.89" y2="2"/><line class="cls-4" x1="510.89" y1="5.97" x2="510.89" y2="313.73"/><line class="cls-3" x1="510.89" y1="315.72" x2="510.89" y2="317.72"/><line class="cls-3" x1="555.11" x2="555.11" y2="2"/><line class="cls-4" x1="555.11" y1="5.97" x2="555.11" y2="313.73"/><line class="cls-3" x1="555.11" y1="315.72" x2="555.11" y2="317.72"/><rect class="cls-5" x="114" y="31.44" width="307.98" height="21"/><rect class="cls-5" x="114" y="89.93" width="263.79" height="21"/><rect class="cls-5" x="114" y="148.43" width="263.79" height="21"/><rect class="cls-5" x="114" y="206.93" width="219.48" height="21"/><rect class="cls-5" x="114" y="265.42" width="308.06" height="21"/></g></g></svg>