<svg xmlns="http://www.w3.org/2000/svg" viewBox="0 0 521.64 400.4"><defs><style>.cls-1{fill:#231f20;}.cls-2,.cls-3{fill:none;stroke:#787878;stroke-miterlimit:10;}.cls-2{stroke-dasharray:4;}.cls-4{fill:#f47959;opacity:0.5;}</style></defs><g id="Layer_2" data-name="Layer 2"><g id="Layer_1-2" data-name="Layer 1"><path class="cls-1" d="M134.91,12.24a49.88,49.88,0,0,1-10.42.8h-1.65v-10h9.75V4.17h-8.43V11.9h.33a48.68,48.68,0,0,0,10.27-.78Zm-8.32,9.35h13.32v1.13H125.26V15.59h1.33ZM142.28,8V9.1h-3.47v8h-1.32V1h1.32V8Z"/><path class="cls-1" d="M155.49,12.44h-9.7V2.87h9.7Zm.47,3.1c0,3.6,4.22,5.9,7.72,6.58l-.57,1.05c-3.07-.65-6.55-2.4-7.8-5.28-1.27,2.88-4.72,4.63-7.8,5.28l-.57-1.05c3.47-.68,7.7-3,7.7-6.58v-.75H156ZM154.16,4h-7.07v7.42h7.07Zm11.12,3.47V8.57h-3.47v7.3h-1.32V1.07h1.32V7.42Z"/><path class="cls-1" d="M11,186.48c0,5.42-4,9.47-10.49,11.3L0,196.65c5.7-1.57,9.3-4.82,9.6-9.05H.92v-1.12ZM3.25,198.82H17v8H3.25Zm1.32,6.88h11.1V200H4.57Zm15.9-13.85H17v5.85H15.67V185H17v5.75h3.47Z"/><path class="cls-1" d="M35.9,196.1a9.28,9.28,0,0,1-5.93-5,9.49,9.49,0,0,1-5.89,5.42l-.66-1c3.1-1,5.85-3.63,5.85-6.8H23.9v-1.13h5.37v-2.8H30.6v2.8h5.32v1.13H30.6c0,3,2.82,5.47,5.92,6.4Zm5.92,9.65v1.1H26.92v-5.13H39.65v-2.65H26.85V198H41v4.79H28.22v3ZM41,196.8H39.62V185H41Z"/><path class="cls-1" d="M56.67,196.35H47v-9.57h9.7Zm.48,3.1c0,3.6,4.22,5.9,7.72,6.57l-.57,1c-3.08-.65-6.55-2.4-7.8-5.27-1.28,2.87-4.73,4.62-7.8,5.27l-.58-1c3.48-.67,7.7-3,7.7-6.57v-.75h1.33Zm-1.8-11.6H48.27v7.43h7.08Zm11.12,3.48v1.15H63v7.29H61.67V185H63v6.35Z"/><path class="cls-1" d="M92.7,381.15a15.54,15.54,0,0,1-8.47,14.35l-.8-1a14.25,14.25,0,0,0,8-12.25H84.13v-1.12ZM102,378.2v22.2H100.7V388.57H97V399.2H95.75V378.8H97v8.65h3.67V378.2Z"/><path class="cls-1" d="M126.4,389.75v1.12h-9.25v4.93h-1.32v-4.93h-9.6v-1.12Zm-17.75-6.55c0-2.7,3-4.35,7.63-4.35S124,380.5,124,383.2s-3,4.37-7.67,4.37S108.65,385.9,108.65,383.2Zm1.6,15.5h13.92v1.15H109v-6.38h1.3ZM110,383.2c0,1.95,2.55,3.25,6.25,3.25s6.3-1.3,6.3-3.25S120,380,116.28,380,110,381.25,110,383.2Z"/><path class="cls-1" d="M142.5,382.25H129.35v-1.1h5.93v-2.92h1.32v2.92h5.9Zm-6.57,9.6c-3.15,0-5.25-1.6-5.25-4.05s2.1-4.08,5.25-4.08,5.22,1.6,5.22,4.08S139.08,391.85,135.93,391.85Zm0-1.08c2.37,0,4-1.25,4-3s-1.6-3-4-3-4,1.22-4,3S133.55,390.77,135.93,390.77Zm-1.78,8h13.32v1.13H132.83v-6.33h1.32Zm15.7-12.9V387h-3.47v7.95h-1.33V378.23h1.33v7.59Z"/><path class="cls-1" d="M163.05,389.57h-9.7V380h9.7Zm.48,3.1c0,3.6,4.22,5.9,7.72,6.58l-.58,1.05c-3.07-.65-6.54-2.4-7.79-5.28-1.28,2.88-4.73,4.63-7.8,5.28l-.58-1.05c3.48-.68,7.7-3,7.7-6.58v-.75h1.33Zm-1.8-11.6h-7.08v7.43h7.08Zm11.12,3.48v1.15h-3.47V393h-1.33V378.2h1.33v6.35Z"/><path class="cls-1" d="M391,389.87V391H370.87v-1.13Zm-1.58-2.17a7.52,7.52,0,0,1-4.27-4.3,7.89,7.89,0,0,1-4.27,4.5,8,8,0,0,1-4.28-4.65,8.11,8.11,0,0,1-4.22,4.45l-.73-1c2.65-1.13,4.28-3.78,4.28-5.55V378.9h1.32v2.25a7.12,7.12,0,0,0,3.63,5.4,6.76,6.76,0,0,0,3.62-5.4V378.9h1.32v2.25a6.35,6.35,0,0,0,4.28,5.55Zm-14.57,11h13.92v1.13H373.57v-6.5h1.32Z"/><path class="cls-1" d="M404.69,389.57H395V380h9.7Zm.48,3.1c0,3.6,4.22,5.9,7.72,6.57l-.58,1.05c-3.07-.64-6.55-2.39-7.79-5.27-1.28,2.88-4.73,4.63-7.8,5.27l-.58-1.05c3.48-.67,7.7-3,7.7-6.57v-.75h1.33Zm-1.8-11.6h-7.08v7.43h7.08Zm11.12,3.48v1.15H411V393h-1.32V378.2H411v6.35Z"/><path class="cls-1" d="M498.59,196v1.13h-20V196h9.35v-3.35h-6.52v-7.17h1.32v6.05h13.57v1.12h-7.05V196Zm-2.5,7.1c0,2.57-2.85,4-7.55,4s-7.55-1.43-7.55-4,2.85-4,7.55-4S496.09,200.55,496.09,203.1Zm-1.33,0c0-1.8-2.42-2.9-6.22-2.9s-6.22,1.1-6.22,2.9,2.42,2.92,6.22,2.92S494.76,204.92,494.76,203.1Z"/><path class="cls-1" d="M521.64,203.07v1.13H501.49v-1.13h9.37v-6.32h-6.67v-9.87H519V188H505.51v7.63h13.68v1.12h-7v6.32Z"/><path class="cls-1" d="M381.59,12.57a10.13,10.13,0,0,1-5.7-6.1A10.6,10.6,0,0,1,370.24,13L369.49,12a9.46,9.46,0,0,0,5.73-8.4V1.25h1.3v2.3a9,9,0,0,0,5.77,8Zm6.3,8v1.12h-14.7V14.87h1.33v5.65Zm-.75-4.17h-1.33V0h1.33Z"/><path class="cls-1" d="M402.87,11.37h-9.7V1.8h9.7Zm.47,3.1c0,3.6,4.22,5.9,7.72,6.57l-.57,1.05c-3.08-.65-6.55-2.4-7.8-5.27-1.27,2.87-4.72,4.62-7.8,5.27L394.32,21c3.47-.67,7.7-3,7.7-6.57v-.75h1.32Zm-1.8-11.6h-7.07V10.3h7.07Zm11.12,3.48V7.5h-3.47v7.3h-1.33V0h1.33V6.35Z"/><polygon class="cls-2" points="247.16 245.41 221.06 200.2 247.16 154.98 299.37 154.98 325.47 200.2 299.37 245.41 247.16 245.41"/><polygon class="cls-3" points="175.57 369.41 77.87 200.2 175.57 30.98 370.96 30.98 468.66 200.2 370.96 369.41 175.57 369.41"/><polygon class="cls-2" points="193.47 338.41 113.67 200.2 193.47 61.98 353.06 61.98 432.86 200.2 353.06 338.41 193.47 338.41"/><polygon class="cls-2" points="211.37 307.41 149.47 200.2 211.37 92.98 335.16 92.98 397.06 200.2 335.16 307.41 211.37 307.41"/><polygon class="cls-2" points="229.26 276.41 185.26 200.2 229.26 123.98 317.27 123.98 361.27 200.2 317.27 276.41 229.26 276.41"/><polygon class="cls-2" points="247.16 245.41 221.06 200.2 247.16 154.98 299.37 154.98 325.47 200.2 299.37 245.41 247.16 245.41"/><polygon class="cls-4" points="149.47 200.2 236.16 138.68 397.06 200.2 299.37 245.41 229.26 276.41 149.47 200.2"/></g></g></svg>