<svg xmlns="http://www.w3.org/2000/svg" viewBox="0 0 60.77 60.77"><defs><style>.cls-1{fill:#ef785b;}.cls-2{opacity:0.5;}.cls-3{fill:none;stroke:#fff;stroke-miterlimit:10;stroke-width:0.5px;stroke-dasharray:2 2;}.cls-4{fill:#fff;}</style></defs><g id="Layer_2" data-name="Layer 2"><g id="Layer_1-2" data-name="Layer 1"><circle class="cls-1" cx="30.38" cy="30.38" r="30.38"/><g class="cls-2"><circle class="cls-3" cx="30.38" cy="30.38" r="27.34" transform="matrix(0.16, -0.99, 0.99, 0.16, -4.47, 55.51)"/></g><path class="cls-4" d="M19.59,26.92H16.67V25.19H24.6v1.73H21.66v8.65H19.59Z"/><path class="cls-4" d="M25.33,30.34C25.33,27,27.22,25,30,25s4.64,2,4.64,5.34S32.71,35.76,30,35.76,25.33,33.7,25.33,30.34Zm7.15,0c0-2.23-1-3.56-2.52-3.56s-2.52,1.33-2.52,3.56S28.42,34,30,34,32.48,32.55,32.48,30.34Z"/><path class="cls-4" d="M36.63,25.19H40c2.3,0,4.06.81,4.06,3.26s-1.78,3.43-4,3.43H38.7v3.69H36.63Zm3.31,5c1.43,0,2.12-.6,2.12-1.79s-.76-1.61-2.19-1.61H38.7v3.4Z"/></g></g></svg>